<!-- icon666.com - MILLIONS vector ICONS FREE --><svg id="Layer_1" enable-background="new 0 0 60 60" viewBox="0 0 60 60" xmlns="http://www.w3.org/2000/svg"><path d="m30 6c-13.2333984 0-24 10.7666016-24 24s10.7666016 24 24 24 24-10.7666016 24-24-10.7666016-24-24-24zm0 46c-12.1308594 0-22-9.8691406-22-22s9.8691406-22 22-22 22 9.8691406 22 22-9.8691406 22-22 22z"></path><path d="m31 11c0-.5527344-.4472656-1-1-1-11.0283203 0-20 8.9716797-20 20 0 .5527344.4472656 1 1 1s1-.4472656 1-1c0-9.9248047 8.0751953-18 18-18 .5527344 0 1-.4472656 1-1z"></path><path d="m39.9208984 21.8085938-14.2626953 14.2617187-5.5791016-5.5791016c-.390625-.390625-1.0234375-.390625-1.4140625 0s-.390625 1.0234375 0 1.4140625l6.2861328 6.2861328c.1953125.1953125.4511719.2929688.7070313.2929688s.5117188-.0976563.7070313-.2929688l14.9697266-14.96875c.390625-.390625.390625-1.0234375 0-1.4140625s-1.0234376-.3906249-1.4140626.0000001z"></path></svg>