<!-- icon666.com - MILLIONS vector ICONS FREE --><svg id="Layer_1" viewBox="0 0 48 48" xmlns="http://www.w3.org/2000/svg" data-name="Layer 1"><path d="m11.62873 37.078h24.74254a.97668.97668 0 1 0 0-1.95336h-24.74254a.97668.97668 0 1 0 0 1.95336zm1.32119-12.138a.98433.98433 0 0 0 -.28485.69183v6.446a.976.976 0 0 0 .97668.97673h6.44608a.96864.96864 0 0 0 .68909-.28755s10.1955-10.19272 13.35344-13.3507a2.27935 2.27935 0 0 0 0-3.223l-4.60672-4.60394a2.276 2.276 0 0 0 -3.22032 0c-3.15794 3.15795-13.3534 13.35063-13.3534 13.35063zm1.66852 6.16122h3.10909l-3.10909-3.11174zm.40424-5.46939 5.06515 5.06517 9.66643-9.66909-5.06245-5.06521-9.66913 9.66917zm16.11251-5.98483-5.06246-5.06527 1.61151-1.6115a.32262.32262 0 0 1 .45852 0l4.60394 4.604a.32581.32581 0 0 1 0 .46116zm-7.13519 27.353a23 23 0 1 1 23-23 23.02619 23.02619 0 0 1 -23 23zm0-44a21 21 0 1 0 21 21 21.02359 21.02359 0 0 0 -21-21z" fill-rule="evenodd"></path></svg>