<!-- icon666.com - MILLIONS vector ICONS FREE --><svg viewBox="0 0 64 64" xmlns="http://www.w3.org/2000/svg"><g id="pause-arrow-direction-button-pointer"><path d="m32 62a30 30 0 1 1 30-30 30.034 30.034 0 0 1 -30 30zm0-58a28 28 0 1 0 28 28 28.032 28.032 0 0 0 -28-28z"></path><path d="m30 8.079a1 1 0 0 1 -.078-2c.688-.051 1.388-.079 2.078-.079a1 1 0 0 1 0 2c-.638 0-1.285.025-1.921.076z"></path><path d="m7 33a1 1 0 0 1 -1-1 25.952 25.952 0 0 1 19.76-25.243 1 1 0 1 1 .48 1.943 23.958 23.958 0 0 0 -18.24 23.3 1 1 0 0 1 -1 1z"></path><path d="m25 48a5.006 5.006 0 0 1 -5-5v-22a5 5 0 0 1 10 0v22a5.006 5.006 0 0 1 -5 5zm0-30a3 3 0 0 0 -3 3v22a3 3 0 0 0 6 0v-22a3 3 0 0 0 -3-3z"></path><path d="m39 48a5.006 5.006 0 0 1 -5-5v-22a5 5 0 0 1 10 0v22a5.006 5.006 0 0 1 -5 5zm0-30a3 3 0 0 0 -3 3v22a3 3 0 0 0 6 0v-22a3 3 0 0 0 -3-3z"></path></g></svg>